<svg width="148" height="26" viewBox="0 0 148 26" fill="none" xmlns="http://www.w3.org/2000/svg">
<path d="M4.256 19.2539H2.128V21.3819H0V25.6379H6.38399V21.3819H4.256V19.2539Z" fill="#E8DDFF"/>
<path d="M23.4 19.2539V21.3819H21.272V19.2539H19.144V25.6379H25.528V19.2539H23.4Z" fill="#E8DDFF"/>
<path d="M10.64 4.36628V6.49428H8.51199V8.62227H6.38399V6.49428H4.256V8.62227H0V2.23828H2.128V4.36628H6.38399V2.23828H8.51199V4.36628H10.64Z" fill="#8E55FF"/>
<path d="M23.4065 4.36628V2.23828H21.2785V4.36628H19.1505V2.23828H17.0225V4.36628H14.8945V6.49428H17.0225V8.62227H19.1505V6.49428H23.4065V8.62227H25.5345V4.36628H23.4065Z" fill="#8E55FF"/>
<path d="M14.8927 6.48828H10.6367V8.61628H14.8927V6.48828Z" fill="#8E55FF"/>
<path d="M6.38399 0.105469V4.36146H2.128V2.23347H0V0.105469H6.38399Z" fill="#6A2DE0"/>
<path d="M19.144 0.105469V4.36146H21.272V2.23347H23.4V4.36146H25.528V0.105469H19.144Z" fill="#6A2DE0"/>
<path d="M25.536 8.61628V12.8723H23.408V10.7443H21.28V12.8723H19.152V10.7443H17.024V12.8723H12.768V10.7443H10.64V12.8723H8.51199V10.7443H6.38399V12.8723H2.128V10.7443H0V8.61628H4.256V6.48828H6.38399V8.61628H8.51199V6.48828H10.64V8.61628H14.896V6.48828H17.024V8.61628H19.152V6.48828H23.408V8.61628H25.536Z" fill="#A577FF"/>
<path d="M8.5152 10.75H6.38721V12.878H8.5152V10.75Z" fill="#BB99FF"/>
<path d="M12.7726 12.8741V10.7461H10.6446V12.8741H8.5166V15.0021H10.6446V17.1301H14.9006V15.0021H17.0286V12.8741H12.7726Z" fill="#BB99FF"/>
<path d="M23.4 12.8741V10.7461H21.272V12.8741H19.144V17.1301H21.272V15.0021H23.4V17.1301H25.528V12.8741H23.4Z" fill="#BB99FF"/>
<path d="M19.1553 10.75H17.0273V12.878H19.1553V10.75Z" fill="#BB99FF"/>
<path d="M2.128 12.878V10.75H0V17.134H4.256V15.006H6.38399V12.878H2.128Z" fill="#BB99FF"/>
<path d="M23.4 17.1319V15.0039H21.272V17.1319H19.144V19.2599H21.272V21.3879H23.4V19.2599H25.528V17.1319H23.4Z" fill="#D2BBFF"/>
<path d="M4.256 17.128H0V19.256V21.384H2.128V19.256H4.256V21.384H6.38399V19.256V17.128V15H4.256V17.128Z" fill="#D2BBFF"/>
<path d="M37.3418 0.589844H45.2791L50.5341 8.0235H50.7968L56.0518 0.589844H63.9891V25.1242H56.1613V11.7677H55.9643L50.8078 18.5664H50.545L45.3885 11.7677H45.1915V25.1242H37.3637V0.589844H37.3418Z" fill="#6A2DE0"/>
<path d="M68.2031 12.8748C68.2031 11.1122 68.5425 9.43713 69.2103 7.87157C69.8891 6.30602 70.8087 4.93752 71.9692 3.76609C73.1297 2.60561 74.4982 1.68599 76.0747 1.00721C77.6403 0.32844 79.3153 0 81.0779 0C82.8405 0 84.5156 0.339388 86.0811 1.00721C87.6467 1.68599 89.0152 2.60561 90.1866 3.76609C91.3471 4.92658 92.2667 6.29507 92.9455 7.87157C93.6243 9.43713 93.9527 11.1122 93.9527 12.8748C93.9527 14.6374 93.6133 16.3124 92.9455 17.878C92.2667 19.4436 91.3471 20.8121 90.1866 21.9835C89.0261 23.144 87.6576 24.0636 86.0811 24.7424C84.5156 25.4211 82.8405 25.7496 81.0779 25.7496C79.3153 25.7496 77.6403 25.4102 76.0747 24.7424C74.5091 24.0636 73.1407 23.144 71.9692 21.9835C70.8087 20.823 69.8891 19.4545 69.2103 17.878C68.5316 16.3124 68.2031 14.6374 68.2031 12.8748ZM75.9324 12.8748C75.9324 13.5864 76.0638 14.2542 76.3375 14.8783C76.6112 15.5023 76.9724 16.0497 77.4432 16.5205C77.914 16.9912 78.4504 17.3525 79.0854 17.6262C79.7094 17.8999 80.3772 18.0313 81.0889 18.0313C81.8005 18.0313 82.4683 17.8999 83.0923 17.6262C83.7164 17.3525 84.2638 16.9912 84.7345 16.5205C85.2053 16.0497 85.5666 15.5132 85.8403 14.8783C86.114 14.2542 86.2453 13.5864 86.2453 12.8748C86.2453 12.1632 86.114 11.4953 85.8403 10.8713C85.5666 10.2473 85.2053 9.69988 84.7345 9.22912C84.2638 8.75836 83.7273 8.39708 83.0923 8.12338C82.4683 7.84968 81.8005 7.7183 81.0889 7.7183C80.3772 7.7183 79.7094 7.84968 79.0854 8.12338C78.4614 8.39708 77.914 8.75836 77.4432 9.22912C76.9724 9.69988 76.6112 10.2363 76.3375 10.8713C76.0638 11.4953 75.9324 12.1632 75.9324 12.8748Z" fill="#6A2DE0"/>
<path d="M100.395 12.4355L93.8811 0.589844H102.453L104.665 4.59679L106.876 0.589844H115.481L108.967 12.4355L115.952 25.1242H107.38L104.654 20.2305L101.972 25.1242H93.3994L100.384 12.4355H100.395Z" fill="#6A2DE0"/>
<path d="M118.714 0.589844H127.023V25.1242H118.714V0.589844Z" fill="#6A2DE0"/>
<path d="M131.8 0.589844H147.566V7.02724H139.628V9.75328H147.456V15.8622H139.628V18.6978H147.817V25.1351H131.79V0.600792L131.8 0.589844Z" fill="#6A2DE0"/>
</svg>
